<svg width="22" height="27" viewBox="0 0 22 27" fill="none" xmlns="http://www.w3.org/2000/svg">
<path d="M21.2863 10.7313C21.2863 5.04171 16.6817 0.428572 11.0006 0.428572C5.31944 0.428572 0.714844 5.04171 0.714844 10.7313C0.714844 14.7858 3.20533 19.6798 8.12096 25.4917C9.46604 27.0821 11.8457 27.2809 13.4361 25.9358C13.5962 25.8004 13.7447 25.6518 13.8801 25.4917C18.7958 19.6798 21.2863 14.7858 21.2863 10.7313ZM11.96 24.1906C11.3335 24.7205 10.3961 24.6422 9.86617 24.0157C5.26731 18.5782 3.00056 14.1239 3.00056 10.7313C3.00056 6.30313 6.58276 2.71429 11.0006 2.71429C15.4184 2.71429 19.0006 6.30313 19.0006 10.7313C19.0006 14.1239 16.7338 18.5782 12.1349 24.0157C12.0816 24.0787 12.0231 24.1373 11.96 24.1906ZM6.42913 10.7143C6.42913 8.19021 8.47648 6.14286 11.0006 6.14286C13.5246 6.14286 15.572 8.19021 15.572 10.7143C15.572 13.2384 13.5246 15.2857 11.0006 15.2857C8.47648 15.2857 6.42913 13.2384 6.42913 10.7143ZM8.71484 10.7143C8.71484 11.976 9.73884 13 11.0006 13C12.2623 13 13.2863 11.976 13.2863 10.7143C13.2863 9.45257 12.2623 8.42857 11.0006 8.42857C9.73884 8.42857 8.71484 9.45257 8.71484 10.7143Z" fill="#009959"/>
</svg>
