<svg width="22" height="22" viewBox="0 0 22 22" fill="none" xmlns="http://www.w3.org/2000/svg">
    <path d="M8.02148 11.2062H12.1465M14.6215 15.1249H8.02148C8.51379 15.1249 8.98594 14.9294 9.33405 14.5812C9.68217 14.2331 9.87773 13.761 9.87773 13.2687V8.73117C9.87773 8.12946 10.1168 7.5524 10.5422 7.12692C10.9677 6.70145 11.5448 6.46242 12.1465 6.46242C12.4446 6.46117 12.7399 6.51935 13.0152 6.63356C13.2906 6.74777 13.5404 6.91571 13.7501 7.12758" stroke="#009959" stroke-width="1.8" stroke-linecap="round" stroke-linejoin="round"/>
    <path d="M21.1 11C21.1 16.5781 16.5781 21.1 11 21.1C5.42192 21.1 0.9 16.5781 0.9 11C0.9 5.42192 5.42192 0.9 11 0.9C16.5781 0.9 21.1 5.42192 21.1 11Z" stroke="#009959" stroke-width="1.8"/>
</svg>
