<svg width="22" height="24" viewBox="0 0 22 24" fill="none" xmlns="http://www.w3.org/2000/svg">
<path d="M14.7982 6.59999C14.7982 4.50024 13.0979 2.79999 10.9982 2.79999C8.89842 2.79999 7.19818 4.50024 7.19818 6.59999C7.19818 8.69975 8.89842 10.4 10.9982 10.4C13.0979 10.4 14.7982 8.69975 14.7982 6.59999ZM17.1982 6.59999C17.1982 10.0252 14.4234 12.8 10.9982 12.8C7.57294 12.8 4.79818 10.0252 4.79818 6.59999C4.79818 3.17475 7.57294 0.399994 10.9982 0.399994C14.4234 0.399994 17.1982 3.17475 17.1982 6.59999ZM2.86484 20.5714C2.86484 21.5966 2.74382 21.4667 3.3119 21.4667H18.6845C19.2525 21.4667 19.1315 21.5966 19.1315 20.5714C19.1315 18.048 15.4273 16.5333 10.9982 16.5333C6.5691 16.5333 2.86484 18.048 2.86484 20.5714ZM0.464844 20.5714C0.464844 16.1357 5.36189 14.1333 10.9982 14.1333C16.6345 14.1333 21.5315 16.1357 21.5315 20.5714C21.5315 22.8856 20.6175 23.8667 18.6845 23.8667H3.3119C1.37889 23.8667 0.464844 22.8856 0.464844 20.5714Z" fill="#009959"/>
</svg>
